<svg version="1" xmlns="http://www.w3.org/2000/svg" width="682.667" height="682.667" viewBox="0 0 512.000000 512.000000"><path d="M30.5 1.4C16.6 4.8 6.3 14.7 2 28.8 0 35.1 0 38.9 0 256s0 220.9 2 227.2c3.7 12.2 12 21.2 23.7 26l5.8 2.3h449l5.8-2.4c7.7-3 15.1-9.3 19.3-16.1 6.9-11.3 6.4 5.9 6.4-237.6 0-213.3-.1-220.4-1.9-226.3-4.6-14.7-15.5-24.9-29.9-28-8-1.7-442.8-1.4-449.7.3zM136.9 228c65.6 18.7 119.6 33.8 120 33.6 1.8-1.1 236.6-67.6 238.7-67.6h2.4v31.5c0 24.4-.3 31.7-1.2 32-.7.2-55.3 15.7-121.3 34.5l-120 34-120.7-34.2L14 257.5v-31.8c0-29.6.1-31.7 1.8-31.7.9 0 55.4 15.3 121.1 34zm-1.1 129.1l119.6 34.1L375 357.1c65.8-18.8 120.4-34.1 121.3-34.1 1.6 0 1.7 5.8 1.7 77.2 0 75.6-.1 77.4-2.1 81.8-2.7 6-7.4 10.7-13.4 13.6l-5 2.4h-443l-5-2.4c-6-2.9-10.7-7.6-13.4-13.6-2-4.4-2.1-6.2-2.1-81.8 0-52.8.3-77.2 1-77.2.6 0 54.9 15.3 120.8 34.1z"/></svg>